<svg width="18" height="18" viewBox="0 0 18 18" fill="none" xmlns="http://www.w3.org/2000/svg">
<path d="M9 15.75C12.7279 15.75 15.75 12.7279 15.75 9C15.75 5.27208 12.7279 2.25 9 2.25C5.27208 2.25 2.25 5.27208 2.25 9C2.25 12.7279 5.27208 15.75 9 15.75Z" stroke="#5C6675" stroke-width="1.5" stroke-linecap="round" stroke-linejoin="round"/>
<path d="M6.82501 6.74995C7.01158 6.26368 7.36107 5.85719 7.81387 5.59982C8.26667 5.34245 8.79474 5.25013 9.308 5.33863C9.82126 5.42712 10.2879 5.69094 10.6284 6.08508C10.9689 6.47922 11.1621 6.97928 11.175 7.49995C11.175 8.99995 8.92501 9.74995 8.92501 9.74995" stroke="#5C6675" stroke-width="1.5" stroke-linecap="round" stroke-linejoin="round"/>
<path d="M9 12.75H9.0075" stroke="#5C6675" stroke-width="1.5" stroke-linecap="round" stroke-linejoin="round"/>
</svg>
