<svg width="13" height="13" viewBox="0 0 13 13" fill="none" xmlns="http://www.w3.org/2000/svg">
<g clip-path="url(#clip0_1_701)">
<path d="M6.50002 10.8334C8.89325 10.8334 10.8334 8.89332 10.8334 6.50008C10.8334 4.10685 8.89325 2.16675 6.50002 2.16675C4.10679 2.16675 2.16669 4.10685 2.16669 6.50008C2.16669 8.89332 4.10679 10.8334 6.50002 10.8334Z" stroke="#8A94A3" stroke-width="1.08333" stroke-linecap="round" stroke-linejoin="round"/>
<path d="M6.49998 1.08325V2.70825M6.49998 10.2916V11.9166M1.08331 6.49992H2.70831M10.2916 6.49992H11.9166" stroke="#8A94A3" stroke-width="1.08333" stroke-linecap="round" stroke-linejoin="round"/>
<path d="M6.49998 7.85409C7.24787 7.85409 7.85415 7.2478 7.85415 6.49992C7.85415 5.75203 7.24787 5.14575 6.49998 5.14575C5.75209 5.14575 5.14581 5.75203 5.14581 6.49992C5.14581 7.2478 5.75209 7.85409 6.49998 7.85409Z" stroke="#8A94A3" stroke-width="1.08333" stroke-linecap="round" stroke-linejoin="round"/>
</g>
<defs>
<clipPath id="clip0_1_701">
<rect width="13" height="13" fill="white"/>
</clipPath>
</defs>
</svg>
