<svg width="23" height="23" viewBox="0 0 23 23" fill="none" xmlns="http://www.w3.org/2000/svg">
<path d="M19.1666 9.58341C19.1666 15.3334 11.5 21.0834 11.5 21.0834C11.5 21.0834 3.83331 15.3334 3.83331 9.58341C3.83331 7.55009 4.64105 5.60004 6.07883 4.16226C7.51661 2.72448 9.46665 1.91675 11.5 1.91675C13.5333 1.91675 15.4834 2.72448 16.9211 4.16226C18.3589 5.60004 19.1666 7.55009 19.1666 9.58341Z" stroke="#0D9488" stroke-width="1.91667" stroke-linecap="round" stroke-linejoin="round"/>
<path d="M11.5 12.4583C13.0878 12.4583 14.375 11.1711 14.375 9.58325C14.375 7.99543 13.0878 6.70825 11.5 6.70825C9.91218 6.70825 8.625 7.99543 8.625 9.58325C8.625 11.1711 9.91218 12.4583 11.5 12.4583Z" stroke="#0D9488" stroke-width="1.91667" stroke-linecap="round" stroke-linejoin="round"/>
</svg>
