<svg width="23" height="23" viewBox="0 0 23 23" fill="none" xmlns="http://www.w3.org/2000/svg">
<path d="M19.1666 9.58366C19.1666 15.3337 11.5 21.0837 11.5 21.0837C11.5 21.0837 3.83331 15.3337 3.83331 9.58366C3.83331 7.55033 4.64105 5.60029 6.07883 4.16251C7.51661 2.72473 9.46665 1.91699 11.5 1.91699C13.5333 1.91699 15.4834 2.72473 16.9211 4.16251C18.3589 5.60029 19.1666 7.55033 19.1666 9.58366Z" stroke="#98A2B2" stroke-width="1.91667" stroke-linecap="round" stroke-linejoin="round"/>
<path d="M11.5 12.458C13.0878 12.458 14.375 11.1708 14.375 9.58301C14.375 7.99519 13.0878 6.70801 11.5 6.70801C9.91218 6.70801 8.625 7.99519 8.625 9.58301C8.625 11.1708 9.91218 12.458 11.5 12.458Z" stroke="#98A2B2" stroke-width="1.91667" stroke-linecap="round" stroke-linejoin="round"/>
</svg>
