<svg width="19" height="19" viewBox="0 0 19 19" fill="none" xmlns="http://www.w3.org/2000/svg">
<g clip-path="url(#clip0_1_254)">
<path d="M15.0417 8.70837H3.95833C3.08388 8.70837 2.375 9.41726 2.375 10.2917V15.8334C2.375 16.7078 3.08388 17.4167 3.95833 17.4167H15.0417C15.9161 17.4167 16.625 16.7078 16.625 15.8334V10.2917C16.625 9.41726 15.9161 8.70837 15.0417 8.70837Z" stroke="#8A94A3" stroke-width="1.58333" stroke-linecap="round" stroke-linejoin="round"/>
<path d="M5.54169 8.70837V5.54171C5.54169 4.49189 5.95872 3.48507 6.70106 2.74274C7.44339 2.00041 8.45021 1.58337 9.50002 1.58337C10.5498 1.58337 11.5567 2.00041 12.299 2.74274C13.0413 3.48507 13.4584 4.49189 13.4584 5.54171V8.70837" stroke="#8A94A3" stroke-width="1.58333" stroke-linecap="round" stroke-linejoin="round"/>
</g>
<defs>
<clipPath id="clip0_1_254">
<rect width="19" height="19" fill="white"/>
</clipPath>
</defs>
</svg>
