<svg width="18" height="18" viewBox="0 0 18 18" fill="none" xmlns="http://www.w3.org/2000/svg">
<g clip-path="url(#clip0_1_439)">
<path d="M9 11.25C10.2426 11.25 11.25 10.2426 11.25 9C11.25 7.75736 10.2426 6.75 9 6.75C7.75736 6.75 6.75 7.75736 6.75 9C6.75 10.2426 7.75736 11.25 9 11.25Z" stroke="#5C6675" stroke-width="1.5" stroke-linecap="round" stroke-linejoin="round"/>
<path d="M14.55 11.25C14.4454 11.4711 14.411 11.7189 14.4512 11.9602C14.4914 12.2015 14.6044 12.4247 14.775 12.6L14.85 12.675C15.0219 12.8039 15.1641 12.9683 15.267 13.157C15.3699 13.3457 15.431 13.5543 15.4462 13.7687C15.4615 13.983 15.4305 14.1982 15.3553 14.3995C15.2802 14.6009 15.1626 14.7837 15.0107 14.9357C14.8587 15.0876 14.6759 15.2052 14.4745 15.2803C14.2732 15.3555 14.058 15.3865 13.8437 15.3712C13.6293 15.356 13.4207 15.2949 13.232 15.192C13.0433 15.0891 12.8789 14.9469 12.75 14.775L12.675 14.7C12.5076 14.5412 12.2979 14.434 12.0711 14.3913C11.8444 14.3486 11.6101 14.3722 11.3964 14.4593C11.1827 14.5464 10.9986 14.6932 10.8662 14.8822C10.7338 15.0712 10.6588 15.2944 10.65 15.525V15.75C10.65 16.1478 10.492 16.5294 10.2107 16.8107C9.92936 17.092 9.54782 17.25 9.15 17.25C8.75218 17.25 8.37064 17.092 8.08934 16.8107C7.80804 16.5294 7.65 16.1478 7.65 15.75V15.675C7.79918 15.3567 7.81583 14.9923 7.69628 14.6617C7.57672 14.3312 7.33076 14.0617 7.0125 13.9125C6.69424 13.7633 6.32975 13.7467 5.99922 13.8662C5.66869 13.9858 5.39918 14.2317 5.25 14.55C5.02887 14.4454 4.78106 14.411 4.53978 14.4512C4.2985 14.4914 4.07527 14.6044 3.9 14.775L3.825 14.85C3.69606 15.0219 3.53167 15.1641 3.34298 15.267C3.15429 15.3699 2.9457 15.431 2.73133 15.4462C2.51697 15.4615 2.30183 15.4305 2.10049 15.3553C1.89915 15.2802 1.7163 15.1626 1.56434 15.0107C1.41238 14.8587 1.29484 14.6759 1.21969 14.4745C1.14455 14.2732 1.11354 14.058 1.12877 13.8437C1.14401 13.6293 1.20513 13.4207 1.308 13.232C1.41086 13.0433 1.55307 12.8789 1.725 12.75L1.8 12.675C1.95882 12.5076 2.06599 12.2979 2.10868 12.0711C2.15138 11.8444 2.12778 11.6101 2.04071 11.3964C1.95364 11.1827 1.80681 10.9986 1.61779 10.8662C1.42877 10.7338 1.2056 10.6588 0.975 10.65H0.75C0.352175 10.65 -0.0293556 10.492 -0.31066 10.2107C-0.591965 9.92936 -0.75 9.54782 -0.75 9.15C-0.75 8.75218 -0.591965 8.37064 -0.31066 8.08934C-0.0293556 7.80804 0.352175 7.65 0.75 7.65H0.825C1.14326 7.79918 1.50775 7.81583 1.83828 7.69628C2.16881 7.57672 2.43832 7.33076 2.5875 7.0125C2.73668 6.69424 2.75333 6.32975 2.63378 5.99922C2.51422 5.66869 2.26826 5.39918 1.95 5.25C2.05456 5.02887 2.08904 4.78106 2.04883 4.53978C2.00861 4.2985 1.89563 4.07527 1.725 3.9L1.65 3.825C1.47807 3.69606 1.33586 3.53167 1.233 3.34298C1.13013 3.15429 1.06901 2.9457 1.05377 2.73133C1.03854 2.51697 1.06955 2.30183 1.14469 2.10049C1.21984 1.89915 1.33738 1.7163 1.48934 1.56434C1.6413 1.41238 1.82415 1.29484 2.02549 1.21969C2.22683 1.14455 2.44197 1.11354 2.65633 1.12877C2.8707 1.14401 3.07929 1.20513 3.26798 1.308C3.45667 1.41086 3.62106 1.55307 3.75 1.725L3.825 1.8C4.0148 1.97494 4.25595 2.08401 4.51265 2.11103C4.76936 2.13806 5.02793 2.08158 5.25 1.95H5.325C5.53457 1.84824 5.70999 1.68768 5.82985 1.48791C5.94972 1.28814 6.00884 1.0578 6 0.825V0.75C6 0.352175 6.15804 -0.0293556 6.43934 -0.31066C6.72064 -0.591965 7.10218 -0.75 7.5 -0.75C7.89782 -0.75 8.27936 -0.591965 8.56066 -0.31066C8.84196 -0.0293556 9 0.352175 9 0.75V0.825C8.85082 1.32228 8.90529 1.85846 9.15143 2.31558C9.39757 2.7727 9.81522 3.11332 10.3125 3.2625C10.8098 3.41168 11.346 3.35721 11.8031 3.11107C12.2602 2.86493 12.6008 2.44728 12.75 1.95C12.9711 2.05456 13.2189 2.08904 13.4602 2.04883C13.7015 2.00861 13.9247 1.89563 14.1 1.725L14.175 1.65C14.3039 1.47807 14.4683 1.33586 14.657 1.233C14.8457 1.13013 15.0543 1.06901 15.2687 1.05377C15.483 1.03854 15.6982 1.06955 15.8995 1.14469C16.1009 1.21984 16.2837 1.33738 16.4357 1.48934C16.5876 1.6413 16.7052 1.82415 16.7803 2.02549C16.8555 2.22683 16.8865 2.44197 16.8712 2.65633C16.856 2.8707 16.7949 3.07929 16.692 3.26798C16.5891 3.45667 16.4469 3.62106 16.275 3.75L16.2 3.825C16.0412 3.99242 15.934 4.20208 15.8913 4.42886C15.8486 4.65564 15.8722 4.88992 15.9593 5.10362C16.0464 5.31733 16.1932 5.5014 16.3822 5.63378C16.5712 5.76616 16.7944 5.84123 17.025 5.85H17.25C17.6478 5.85 18.0294 6.00803 18.3107 6.28934C18.592 6.57064 18.75 6.95218 18.75 7.35C18.75 7.74782 18.592 8.12936 18.3107 8.41066C18.0294 8.69196 17.6478 8.85 17.25 8.85H17.175C16.9338 8.84748 16.6975 8.91769 16.4968 9.05147C16.2961 9.18526 16.1404 9.37641 16.05 9.6L14.55 11.25Z" stroke="#5C6675" stroke-width="1.5" stroke-linecap="round" stroke-linejoin="round"/>
</g>
<defs>
<clipPath id="clip0_1_439">
<rect width="18" height="18" fill="white"/>
</clipPath>
</defs>
</svg>
